<svg version="1" xmlns="http://www.w3.org/2000/svg" width="146.3" height="40.375" viewBox="0 0 146.3 40.375"><path d="M71.874 18.66c0-.707.58-1.287 1.256-1.287h7.18c5.087 0 8.436 2.704 8.436 7.147v.064c0 4.86-4.057 7.373-8.854 7.373h-5.474v6.825c0 .708-.58 1.288-1.288 1.288-.676 0-1.256-.58-1.256-1.288v-20.12zm8.114 10.98c3.734 0 6.182-1.996 6.182-4.958v-.064c0-3.22-2.415-4.894-6.054-4.894h-5.698v9.917h5.57zm13.615-11.14c0-.708.58-1.288 1.255-1.288.71 0 1.288.58 1.288 1.288v20.283c0 .708-.58 1.288-1.288 1.288-.676 0-1.255-.58-1.255-1.287v-20.284zm9.141.032c0-.676.58-1.256 1.256-1.256h.354c.58 0 .934.29 1.288.74l13.684 17.45v-16.998c0-.676.547-1.256 1.256-1.256.676 0 1.223.58 1.223 1.256v20.348c0 .676-.482 1.19-1.158 1.19h-.13c-.547 0-.933-.32-1.32-.77l-13.973-17.87v17.45c0 .676-.547 1.256-1.255 1.256-.678 0-1.225-.58-1.225-1.256v-20.284zm25.43-.032c0-.708.58-1.288 1.256-1.288.708 0 1.287.58 1.287 1.288v12.33l12.847-13.167c.29-.257.58-.45.998-.45.676 0 1.224.61 1.224 1.255 0 .354-.16.644-.42.9l-7.983 7.92 8.564 10.562c.225.29.354.547.354.934 0 .676-.578 1.288-1.286 1.288-.483 0-.806-.258-1.03-.58l-8.405-10.462-4.86 4.86v4.894c0 .708-.58 1.288-1.288 1.288-.677 0-1.256-.58-1.256-1.288v-20.284z" fill="#FFF"/><path fill="#D22856" d="M98.498 9.875c-2.002 0-3.624-1.623-3.624-3.624 0 2.002-1.622 3.625-3.624 3.625 2.002 0 3.624 1.623 3.624 3.624 0-2.002 1.622-3.625 3.624-3.625z"/><g fill="#FFF"><path d="M43.094 19.312c.246 0 .488.014.73.033-.44-.728-1.228-1.22-2.137-1.22-.877 0-1.614-.57-1.884-1.355-.727.207-1.425.482-2.09.816l.19.038c1.104 0 2 .896 2 2l-.028.28c1-.38 2.084-.592 3.22-.592zM60.498 28.32l-.016-.158-.02-.146-.003-.025-5.173-21.341c-.36-2.347-2.593-6.65-8.6-6.65-.828 0-1.5.67-1.5 1.5s.672 1.5 1.5 1.5c4.857 0 5.576 3.73 5.64 4.143l4.767 19.7h-2.073c-.444-3.556-2.45-6.627-5.303-8.522-.898.38-1.53 1.27-1.53 2.304l-.026.255c1.993 1.357 3.416 3.488 3.83 5.964.083.49.136.988.136 1.5s-.053 1.01-.135 1.5c-.715 4.272-4.42 7.53-8.895 7.53s-8.18-3.258-8.896-7.53c-.083-.49-.136-.988-.136-1.5s.053-1.01.135-1.5c.146-.88.426-1.71.807-2.484-1.033-.078-1.85-.932-1.85-1.985 0-.19-.077-.358-.193-.49-.938 1.47-1.57 3.15-1.796 4.958h-1.708c-.742-5.927-5.802-10.53-11.927-10.53s-11.187 4.604-11.93 10.53h-2.195l4.74-19.552.027-.147c.022-.171.627-4.144 5.637-4.144.83 0 1.5-.67 1.5-1.5s-.67-1.5-1.5-1.5c-6.006 0-8.238 4.303-8.6 6.65l-5.169 21.34-.003.025-.02.146-.017.16-.003.022.01.103.017.17.036.137.044.142.064.133.068.123.086.114.093.113.102.092.116.097.123.072.127.07.152.054.104.037.023.003c.107.023.217.04.33.04h4.104c.07.57.194 1.122.343 1.665l.038-.187c0-1.104.896-2 2-2 .208 0 .405.04.594.1-.043-.355-.077-.713-.077-1.08 0-.51.053-1.01.135-1.5.716-4.27 4.42-7.53 8.896-7.53s8.182 3.26 8.897 7.53c.082.49.135.99.135 1.5s-.053 1.012-.135 1.5c-.716 4.273-4.42 7.532-8.896 7.532-2.047 0-3.93-.688-5.443-1.84-.356.33-.83.537-1.354.537-.413 0-.75.336-.75.748 0 .265-.053.516-.146.747 2.086 1.747 4.765 2.808 7.694 2.808 6.126 0 11.187-4.604 11.928-10.53h1.708c.742 5.926 5.802 10.53 11.927 10.53s11.187-4.603 11.927-10.528h3.98c.114 0 .224-.017.33-.04l.024-.003.105-.037.15-.054.13-.07.122-.072.117-.097.1-.09.094-.114.086-.114.067-.124.064-.133.045-.142.036-.136.018-.17.01-.104v-.023z"/></g><path fill="#D22856" d="M50.686 16.125c-2.485 0-4.5-2.014-4.5-4.5 0 2.486-2.013 4.5-4.498 4.5 2.485 0 4.5 2.014 4.5 4.5 0-2.486 2.012-4.5 4.498-4.5zm-12.782 3.501c-1.52 0-2.75-1.23-2.75-2.75 0 1.52-1.23 2.75-2.748 2.75 1.52 0 2.75 1.23 2.75 2.75 0-1.52 1.23-2.75 2.748-2.75zm-27.17 14.446c-1.52 0-2.75-1.23-2.75-2.75 0 1.52-1.23 2.75-2.748 2.75 1.52 0 2.75 1.23 2.75 2.748 0-1.517 1.23-2.748 2.748-2.748z"/></svg>