<svg version="1" xmlns="http://www.w3.org/2000/svg" width="146.3" height="40.375" viewBox="0 0 146.3 40.375"><path d="M71.874 18.66c0-.707.58-1.287 1.256-1.287h7.18c5.087 0 8.436 2.704 8.436 7.147v.064c0 4.86-4.057 7.373-8.854 7.373h-5.474v6.825c0 .708-.58 1.288-1.288 1.288-.676 0-1.256-.58-1.256-1.288v-20.12zm8.114 10.98c3.734 0 6.182-1.996 6.182-4.958v-.064c0-3.22-2.415-4.894-6.054-4.894h-5.698v9.917h5.57zm13.615-11.14c0-.708.58-1.288 1.255-1.288.71 0 1.288.58 1.288 1.288v20.283c0 .708-.58 1.288-1.288 1.288-.676 0-1.255-.58-1.255-1.287v-20.284zm9.141.032c0-.676.58-1.256 1.256-1.256h.354c.58 0 .934.29 1.288.74l13.684 17.45v-16.998c0-.676.547-1.256 1.256-1.256.676 0 1.223.58 1.223 1.256v20.348c0 .676-.482 1.19-1.158 1.19h-.13c-.547 0-.933-.32-1.32-.77l-13.973-17.87v17.45c0 .676-.547 1.256-1.255 1.256-.678 0-1.225-.58-1.225-1.256v-20.284zm25.43-.032c0-.708.58-1.288 1.256-1.288.708 0 1.287.58 1.287 1.288v12.33l12.847-13.167c.29-.257.58-.45.998-.45.676 0 1.224.61 1.224 1.255 0 .354-.16.644-.42.9l-7.983 7.92 8.564 10.562c.225.29.354.547.354.934 0 .676-.578 1.288-1.286 1.288-.483 0-.806-.258-1.03-.58l-8.405-10.462-4.86 4.86v4.894c0 .708-.58 1.288-1.288 1.288-.677 0-1.256-.58-1.256-1.288v-20.284zM60.498 28.32l-.016-.158-.02-.146-.003-.025-5.173-21.341c-.36-2.347-2.593-6.65-8.6-6.65-.828 0-1.5.67-1.5 1.5s.672 1.5 1.5 1.5c4.857 0 5.576 3.73 5.64 4.143l4.767 19.7h-2.073c-.74-5.926-5.8-10.53-11.926-10.53s-11.186 4.604-11.927 10.53h-1.707c-.743-5.926-5.803-10.53-11.928-10.53s-11.186 4.604-11.928 10.53h-2.197l4.74-19.552.027-.147c.023-.171.628-4.144 5.638-4.144.83 0 1.5-.67 1.5-1.5s-.67-1.5-1.5-1.5c-6.006 0-8.238 4.303-8.6 6.65l-5.169 21.34-.003.025-.02.146-.017.16-.003.022.01.103.017.17.036.137.044.142.064.133.068.123.086.114.093.113.102.092.116.097.123.072.127.07.152.054.104.037.023.003c.107.023.217.04.33.04h4.104c.742 5.926 5.802 10.53 11.927 10.53s11.185-4.604 11.926-10.53h1.708c.742 5.926 5.802 10.53 11.927 10.53s11.187-4.604 11.928-10.53h3.985c.114 0 .224-.017.33-.04l.024-.003.105-.037.15-.054.13-.07.122-.073.117-.098.1-.092.094-.113.086-.114.067-.124.064-.134.045-.142.036-.136.018-.17.01-.104v-.024zm-42.968 9.055c-4.474 0-8.18-3.26-8.895-7.53-.082-.49-.135-.99-.135-1.5s.053-1.012.135-1.5c.716-4.272 4.42-7.532 8.896-7.532s8.182 3.26 8.897 7.53c.082.49.135.99.135 1.5s-.053 1.012-.135 1.5c-.715 4.273-4.42 7.532-8.896 7.532zm25.564 0c-4.475 0-8.18-3.26-8.896-7.53-.082-.49-.135-.99-.135-1.5s.053-1.012.135-1.5c.716-4.272 4.42-7.532 8.896-7.532s8.18 3.26 8.896 7.53c.082.49.135.99.135 1.5s-.053 1.012-.135 1.5c-.716 4.273-4.42 7.532-8.896 7.532z" fill="#FFF"/></svg>